<svg width="1568" height="1401" xmlns="http://www.w3.org/2000/svg" xmlns:xlink="http://www.w3.org/1999/xlink" xml:space="preserve" overflow="hidden"><defs><clipPath id="clip0"><rect x="-104" y="1011" width="1568" height="1401"/></clipPath></defs><g clip-path="url(#clip0)" transform="translate(104 -1011)"><path d="M114 1079.48C114 1041.66 144.658 1011 182.476 1011L825.524 1011C863.342 1011 894 1041.66 894 1079.48L894 1723.52C894 1761.34 863.342 1792 825.524 1792L182.476 1792C144.658 1792 114 1761.34 114 1723.52Z" fill="#3178C6" fill-rule="evenodd"/><path d="M1075 1049.39 952.423 1211 840.26 1208.55 706 1046.94 828.399 1011 963.32 1011 1075 1049.39Z" fill="#8DB6E3" fill-rule="evenodd"/><path d="M827.752 1012 839.234 1013.15C870.489 1019.52 894 1047.05 894 1080.04L894 1209 840.438 1207.84 706 1047.44Z" fill="#FFFFFF" fill-rule="evenodd"/><path d="M657.555 1076 790 1222.14 653.649 1322 479 1222.95 657.555 1076Z" fill="#FFFFFF" fill-rule="evenodd"/><path d="M37.3974 0 266 60.222 246.488 266.117 0 271 37.3974 0Z" fill="#3178C6" fill-rule="evenodd" transform="matrix(-1 0 0 1 1464 1521)"/><path d="M86.2157 0 271 95.9826 217.318 279 0 225.315 86.2157 0Z" fill="#4D8DD3" fill-rule="evenodd" transform="matrix(-1 0 0 1 1417 1260)"/><path d="M178.555 0 311 146.138 174.649 246 0 146.95 178.555 0Z" fill="#6DA1DB" fill-rule="evenodd" transform="matrix(-1 0 0 1 1310 1074)"/><text fill="#FFFFFF" font-family="Abadi,Abadi_MSFontService,sans-serif" font-weight="400" font-size="394" transform="matrix(1 0 0 1 139.921 1731)">Blue</text><text fill="#3178C6" font-family="Abadi,Abadi_MSFontService,sans-serif" font-weight="400" font-size="394" transform="matrix(1 0 0 1 133.269 2072)">mine</text></g></svg>